<mxfile host="app.diagrams.net" modified="2023-03-02T09:27:26.923Z" agent="5.0 (Macintosh; Intel Mac OS X 10_15_7) AppleWebKit/605.1.15 (KHTML, like Gecko) Version/16.2 Safari/605.1.15" etag="5B3HgxN7o2h6wdn0Kk5Y" version="20.8.23" type="github">
  <diagram name="Page-1" id="o2c3fsNFgxyxEv38SA-e">
    <mxGraphModel dx="1025" dy="614" grid="1" gridSize="10" guides="1" tooltips="1" connect="1" arrows="1" fold="1" page="1" pageScale="1" pageWidth="850" pageHeight="1100" math="0" shadow="0">
      <root>
        <mxCell id="0" />
        <mxCell id="1" parent="0" />
        <mxCell id="aZnbcbyHKL2ON4pZ7Bb4-9" style="edgeStyle=orthogonalEdgeStyle;rounded=0;orthogonalLoop=1;jettySize=auto;html=1;exitX=1;exitY=0.5;exitDx=0;exitDy=0;entryX=0;entryY=0.5;entryDx=0;entryDy=0;" edge="1" parent="1" source="aZnbcbyHKL2ON4pZ7Bb4-1" target="aZnbcbyHKL2ON4pZ7Bb4-4">
          <mxGeometry relative="1" as="geometry">
            <Array as="points">
              <mxPoint x="280" y="260" />
              <mxPoint x="280" y="100" />
            </Array>
          </mxGeometry>
        </mxCell>
        <mxCell id="aZnbcbyHKL2ON4pZ7Bb4-13" style="edgeStyle=orthogonalEdgeStyle;rounded=0;orthogonalLoop=1;jettySize=auto;html=1;exitX=1;exitY=0.5;exitDx=0;exitDy=0;entryX=0;entryY=0.5;entryDx=0;entryDy=0;" edge="1" parent="1" source="aZnbcbyHKL2ON4pZ7Bb4-1" target="aZnbcbyHKL2ON4pZ7Bb4-10">
          <mxGeometry relative="1" as="geometry" />
        </mxCell>
        <mxCell id="aZnbcbyHKL2ON4pZ7Bb4-17" style="edgeStyle=orthogonalEdgeStyle;rounded=0;orthogonalLoop=1;jettySize=auto;html=1;exitX=1;exitY=0.5;exitDx=0;exitDy=0;entryX=0;entryY=0.5;entryDx=0;entryDy=0;" edge="1" parent="1" source="aZnbcbyHKL2ON4pZ7Bb4-1" target="aZnbcbyHKL2ON4pZ7Bb4-14">
          <mxGeometry relative="1" as="geometry">
            <Array as="points">
              <mxPoint x="280" y="260" />
              <mxPoint x="280" y="420" />
            </Array>
          </mxGeometry>
        </mxCell>
        <mxCell id="aZnbcbyHKL2ON4pZ7Bb4-1" value="" style="whiteSpace=wrap;html=1;aspect=fixed;" vertex="1" parent="1">
          <mxGeometry x="120" y="200" width="120" height="120" as="geometry" />
        </mxCell>
        <mxCell id="aZnbcbyHKL2ON4pZ7Bb4-2" value="" style="whiteSpace=wrap;html=1;aspect=fixed;" vertex="1" parent="1">
          <mxGeometry x="140" y="230" width="80" height="80" as="geometry" />
        </mxCell>
        <mxCell id="aZnbcbyHKL2ON4pZ7Bb4-3" value="DRIVER" style="rounded=0;whiteSpace=wrap;html=1;fillColor=#ffe6cc;strokeColor=#d79b00;" vertex="1" parent="1">
          <mxGeometry x="150" y="248" width="60" height="40" as="geometry" />
        </mxCell>
        <mxCell id="aZnbcbyHKL2ON4pZ7Bb4-4" value="" style="whiteSpace=wrap;html=1;aspect=fixed;" vertex="1" parent="1">
          <mxGeometry x="480" y="40" width="120" height="120" as="geometry" />
        </mxCell>
        <mxCell id="aZnbcbyHKL2ON4pZ7Bb4-5" value="" style="whiteSpace=wrap;html=1;aspect=fixed;" vertex="1" parent="1">
          <mxGeometry x="500" y="70" width="80" height="80" as="geometry" />
        </mxCell>
        <mxCell id="aZnbcbyHKL2ON4pZ7Bb4-6" value="EXEC 0" style="rounded=0;whiteSpace=wrap;html=1;fillColor=#ffe6cc;strokeColor=#d79b00;" vertex="1" parent="1">
          <mxGeometry x="510" y="88" width="60" height="40" as="geometry" />
        </mxCell>
        <mxCell id="aZnbcbyHKL2ON4pZ7Bb4-10" value="" style="whiteSpace=wrap;html=1;aspect=fixed;" vertex="1" parent="1">
          <mxGeometry x="480" y="200" width="120" height="120" as="geometry" />
        </mxCell>
        <mxCell id="aZnbcbyHKL2ON4pZ7Bb4-11" value="" style="whiteSpace=wrap;html=1;aspect=fixed;" vertex="1" parent="1">
          <mxGeometry x="500" y="230" width="80" height="80" as="geometry" />
        </mxCell>
        <mxCell id="aZnbcbyHKL2ON4pZ7Bb4-12" value="EXEC 1" style="rounded=0;whiteSpace=wrap;html=1;fillColor=#ffe6cc;strokeColor=#d79b00;" vertex="1" parent="1">
          <mxGeometry x="510" y="248" width="60" height="40" as="geometry" />
        </mxCell>
        <mxCell id="aZnbcbyHKL2ON4pZ7Bb4-14" value="" style="whiteSpace=wrap;html=1;aspect=fixed;" vertex="1" parent="1">
          <mxGeometry x="480" y="360" width="120" height="120" as="geometry" />
        </mxCell>
        <mxCell id="aZnbcbyHKL2ON4pZ7Bb4-15" value="" style="whiteSpace=wrap;html=1;aspect=fixed;" vertex="1" parent="1">
          <mxGeometry x="500" y="390" width="80" height="80" as="geometry" />
        </mxCell>
        <mxCell id="aZnbcbyHKL2ON4pZ7Bb4-16" value="EXEC N" style="rounded=0;whiteSpace=wrap;html=1;fillColor=#ffe6cc;strokeColor=#d79b00;" vertex="1" parent="1">
          <mxGeometry x="510" y="408" width="60" height="40" as="geometry" />
        </mxCell>
        <mxCell id="aZnbcbyHKL2ON4pZ7Bb4-19" value="JVM" style="text;html=1;strokeColor=none;fillColor=none;align=center;verticalAlign=middle;whiteSpace=wrap;rounded=0;strokeWidth=0;fontSize=10;fontStyle=0" vertex="1" parent="1">
          <mxGeometry x="148" y="283" width="60" height="30" as="geometry" />
        </mxCell>
        <mxCell id="aZnbcbyHKL2ON4pZ7Bb4-23" value="JVM" style="text;html=1;strokeColor=none;fillColor=none;align=center;verticalAlign=middle;whiteSpace=wrap;rounded=0;strokeWidth=0;fontSize=10;fontStyle=0" vertex="1" parent="1">
          <mxGeometry x="508" y="122" width="60" height="30" as="geometry" />
        </mxCell>
        <mxCell id="aZnbcbyHKL2ON4pZ7Bb4-24" value="JVM" style="text;html=1;strokeColor=none;fillColor=none;align=center;verticalAlign=middle;whiteSpace=wrap;rounded=0;strokeWidth=0;fontSize=10;fontStyle=0" vertex="1" parent="1">
          <mxGeometry x="508" y="283" width="60" height="30" as="geometry" />
        </mxCell>
        <mxCell id="aZnbcbyHKL2ON4pZ7Bb4-25" value="JVM" style="text;html=1;strokeColor=none;fillColor=none;align=center;verticalAlign=middle;whiteSpace=wrap;rounded=0;strokeWidth=0;fontSize=10;fontStyle=0" vertex="1" parent="1">
          <mxGeometry x="508" y="442" width="60" height="30" as="geometry" />
        </mxCell>
        <mxCell id="aZnbcbyHKL2ON4pZ7Bb4-26" value="NETWORK" style="text;html=1;strokeColor=none;fillColor=none;align=center;verticalAlign=middle;whiteSpace=wrap;rounded=0;fontSize=10;" vertex="1" parent="1">
          <mxGeometry x="350" y="70" width="60" height="30" as="geometry" />
        </mxCell>
      </root>
    </mxGraphModel>
  </diagram>
</mxfile>
